<svg id="Laag_1" data-name="Laag 1" xmlns="http://www.w3.org/2000/svg" viewBox="0 0 296.94 135.95"><defs><style>.cls-1{fill:#ed1b2e;}.cls-2{fill:#20419a;}</style></defs><title>Tekengebied 1</title><rect class="cls-1" x="0.01" width="27.17" height="27.17"/><rect class="cls-1" x="0.01" y="30.57" width="27.17" height="74.73"/><path class="cls-1" d="M47.8,105.3H30.6V78.12H47.8a25.47,25.47,0,0,0,0-50.95H30.61V0H47.8a52.65,52.65,0,0,1,0,105.3"/><path class="cls-1" d="M191.87,11.93H170.78c-19.31,0-29.24,3.78-38.52,11.89-8.78,7.68-13,19.29-16.51,37.65-3.37,17.79-11.4,32.67-23.21,43-12,10.57-27.76,16.16-45.45,16.16H0V108.78H47.08c29.81,0,51.11-18.51,57-49.52,4-21.15,9.45-34.84,20.37-44.39C136,4.75,150.87,0,173.22,0h30.56L191.87,11.93"/><path class="cls-1" d="M188.46,15.33H168.19c-40.22,0-45.87,29.85-49.1,46.77-7.27,38.21-34.84,62-72,62H0V136H47.08c21.46,0,40.66-6.9,55.54-20,14.4-12.64,23.9-30.58,28.26-51.68,3-14.55,7.69-37.1,36.65-37.1h9l11.91-11.88"/><rect class="cls-2" x="141.36" y="43.52" width="4.35" height="16.31"/><path class="cls-2" d="M148.76,47.65h3.83V49.9h0a4.62,4.62,0,0,1,4.44-2.52c3.32,0,4.65,2.34,4.65,4.86v7.59h-4.21V53.94c0-2.29-.79-3.06-1.94-3.06-1.73,0-2.62,1.19-2.62,3.81v5.14h-4.21V47.65"/><path class="cls-2" d="M163.3,47.65h2.48V44.92l4.13-1.29v4h2.94V50.6h-2.94v4.49c0,1.47.35,2.22,1.68,2.22a8,8,0,0,0,1.29-.16l.14,2.73a20,20,0,0,1-2.64.23c-3.76,0-4.67-1.66-4.67-4.56v-5H163.3V47.65"/><path class="cls-2" d="M178.43,55c.23,1.68,1.52,2.34,3.57,2.34a7.87,7.87,0,0,0,3.71-.93v3a12.19,12.19,0,0,1-4.46.77c-4,0-7.08-2.36-7.08-6.38s2.73-6.35,6.52-6.35c4.51,0,6.14,3.2,6.14,6.82V55h-8.41m4.63-2.38c0-1.4-.66-2.55-2.34-2.55-1.52,0-2.24,1.15-2.34,2.55Z"/><path class="cls-2" d="M197.76,51a4.85,4.85,0,0,0-1.42-.14c-2,0-3.06,1.42-3.06,3.81v5.14h-4.2V47.65h3.83V49.9h0a3.75,3.75,0,0,1,3.6-2.52,9,9,0,0,1,1.42.14l-.21,3.5"/><path class="cls-2" d="M199.46,47.65h3.83V49.9h0a4.62,4.62,0,0,1,4.44-2.52c3.32,0,4.65,2.34,4.65,4.86v7.59h-4.2V53.94c0-2.29-.8-3.06-1.94-3.06-1.73,0-2.62,1.19-2.62,3.81v5.14h-4.21V47.65"/><path class="cls-2" d="M223,59.83c0-.65-.09-1.29-.09-1.92h0a4.17,4.17,0,0,1-3.85,2.2c-2.41,0-4.56-1.19-4.56-3.83,0-3.72,4-4.16,6.28-4.16a12.33,12.33,0,0,1,2,.16c0-1.66-1.26-2.1-2.78-2.1a7.91,7.91,0,0,0-3.88.91L216,48.24a12.59,12.59,0,0,1,4.86-.86c3.11,0,5.79,1.33,5.79,5V57a14.87,14.87,0,0,0,.23,2.87H223m-2.9-2.52a2.74,2.74,0,0,0,2.59-2.87c-.54,0-1.15-.07-1.78-.07-1.42,0-2.55.44-2.55,1.61C218.41,56.81,219.16,57.3,220.14,57.3Z"/><path class="cls-2" d="M228.29,47.65h2.48V44.92l4.13-1.29v4h2.94V50.6H234.9v4.49c0,1.47.35,2.22,1.68,2.22a8,8,0,0,0,1.28-.16l.14,2.73a20,20,0,0,1-2.64.23c-3.76,0-4.67-1.66-4.67-4.56v-5h-2.41V47.65"/><path class="cls-2" d="M240.25,42.58h4.2v3.08h-4.2Zm0,5.07h4.2V59.83h-4.2Z"/><path class="cls-2" d="M246.59,53.75c0-4,3.06-6.38,7.08-6.38s7.08,2.34,7.08,6.38-3.06,6.36-7.08,6.36-7.08-2.34-7.08-6.36m9.81,0c0-1.82-.79-3.43-2.73-3.43s-2.73,1.61-2.73,3.43.79,3.41,2.73,3.41S256.4,55.55,256.4,53.75Z"/><path class="cls-2" d="M262.8,47.65h3.83V49.9h0a4.61,4.61,0,0,1,4.44-2.52c3.32,0,4.65,2.34,4.65,4.86v7.59h-4.2V53.94c0-2.29-.79-3.06-1.94-3.06-1.73,0-2.62,1.19-2.62,3.81v5.14H262.8V47.65"/><path class="cls-2" d="M286.38,59.83c0-.65-.09-1.29-.09-1.92h0a4.17,4.17,0,0,1-3.85,2.2c-2.41,0-4.56-1.19-4.56-3.83,0-3.72,4-4.16,6.29-4.16a12.33,12.33,0,0,1,2,.16c0-1.66-1.26-2.1-2.78-2.1a7.91,7.91,0,0,0-3.88.91l-.07-2.85a12.58,12.58,0,0,1,4.86-.86c3.11,0,5.79,1.33,5.79,5V57a14.87,14.87,0,0,0,.23,2.87h-3.86m-2.9-2.52a2.74,2.74,0,0,0,2.59-2.87c-.54,0-1.14-.07-1.78-.07-1.42,0-2.55.44-2.55,1.61C281.75,56.81,282.5,57.3,283.48,57.3Z"/><rect class="cls-2" x="292.73" y="42.3" width="4.21" height="17.52"/><path class="cls-2" d="M141.3,69.32h5.93c5.68,0,9.65,1.78,9.65,8.08,0,6.1-4.09,8.22-9.65,8.22H141.3V69.32m4.35,13.08h1.68c3.25,0,5.07-1.68,5.07-4.93s-1.89-4.93-5.07-4.93h-1.68Z"/><path class="cls-2" d="M158.85,68.38h4.2v3.08h-4.2Zm0,5.07h4.2V85.62h-4.2Z"/><path class="cls-2" d="M169.44,80.76c.23,1.68,1.52,2.34,3.57,2.34a7.88,7.88,0,0,0,3.71-.93v3a12.19,12.19,0,0,1-4.46.77c-4,0-7.08-2.36-7.08-6.38s2.73-6.35,6.52-6.35c4.51,0,6.14,3.2,6.14,6.82v.77h-8.41m4.63-2.38c0-1.4-.65-2.55-2.34-2.55-1.52,0-2.24,1.15-2.34,2.55Z"/><path class="cls-2" d="M179.84,82.26a10.4,10.4,0,0,0,3.95.84c.86,0,1.71-.14,1.71-1,0-2.06-6-.61-6-5,0-2.8,2.76-3.95,5.19-3.95a11.57,11.57,0,0,1,4.27.7l-.33,2.92a6.86,6.86,0,0,0-3.27-.82c-.91,0-1.94.16-1.94.84,0,1.89,6.26.4,6.26,5,0,3.25-2.92,4.07-5.68,4.07a13.75,13.75,0,0,1-4.42-.58l.23-3.06"/><path class="cls-2" d="M195.44,80.76c.23,1.68,1.52,2.34,3.58,2.34a7.88,7.88,0,0,0,3.71-.93v3a12.2,12.2,0,0,1-4.46.77c-4,0-7.08-2.36-7.08-6.38s2.73-6.35,6.52-6.35c4.51,0,6.14,3.2,6.14,6.82v.77h-8.41m4.63-2.38c0-1.4-.65-2.55-2.34-2.55-1.52,0-2.24,1.15-2.34,2.55Z"/><rect class="cls-2" x="206.1" y="68.1" width="4.21" height="17.52"/><path class="cls-2" d="M141.19,107.4a9.55,9.55,0,0,0,4.49,1.08c1.38,0,2.69-.28,2.69-1.59,0-3-7.71-1.12-7.71-7.06,0-3.93,3.83-5,7.1-5a13.8,13.8,0,0,1,4.2.61l-.28,3.36a8.76,8.76,0,0,0-3.62-.75c-1.1,0-2.92.09-2.92,1.52,0,2.64,7.71.87,7.71,6.75,0,4.23-3.55,5.37-7.17,5.37a17.08,17.08,0,0,1-4.86-.7l.37-3.6"/><path class="cls-2" d="M158.63,106.56c.23,1.68,1.52,2.34,3.57,2.34a7.88,7.88,0,0,0,3.72-.93v3a12.19,12.19,0,0,1-4.46.77c-4,0-7.08-2.36-7.08-6.38S157.11,99,160.89,99c4.51,0,6.15,3.2,6.15,6.82v.77h-8.41m4.63-2.38c0-1.4-.65-2.55-2.34-2.55-1.52,0-2.24,1.14-2.34,2.55Z"/><path class="cls-2" d="M177.48,102.61a4.84,4.84,0,0,0-1.43-.14c-2,0-3.06,1.43-3.06,3.81v5.14h-4.2V99.25h3.83v2.24h0a3.76,3.76,0,0,1,3.6-2.52,9,9,0,0,1,1.43.14l-.21,3.5"/><polyline class="cls-2" points="178.58 99.25 183.09 99.25 185.61 107.92 185.66 107.92 188.21 99.25 192.39 99.25 187.88 111.42 183.09 111.42 178.58 99.25"/><path class="cls-2" d="M194.44,94.18h4.2v3.08h-4.2Zm0,5.07h4.2v12.17h-4.2Z"/><path class="cls-2" d="M211.31,102.73a4.62,4.62,0,0,0-2.55-.68,3.13,3.13,0,0,0-3.22,3.36,3.28,3.28,0,0,0,3.46,3.2,5.77,5.77,0,0,0,2.62-.58l.09,3.13a11.35,11.35,0,0,1-3.43.54c-4,0-7.08-2.34-7.08-6.35S204.25,99,208.27,99a7.55,7.55,0,0,1,3.34.68l-.3,3.08"/><path class="cls-2" d="M217.15,106.56c.23,1.68,1.52,2.34,3.58,2.34a7.87,7.87,0,0,0,3.71-.93v3a12.19,12.19,0,0,1-4.46.77c-4,0-7.08-2.36-7.08-6.38S215.63,99,219.42,99c4.51,0,6.14,3.2,6.14,6.82v.77h-8.41m4.63-2.38c0-1.4-.65-2.55-2.34-2.55-1.52,0-2.24,1.14-2.34,2.55Z"/></svg>